<svg id="Layer_1" enable-background="new 0 0 512 512" height="512" viewBox="0 0 512 512" width="512" xmlns="http://www.w3.org/2000/svg"><g><g><path clip-rule="evenodd" d="m31.867 0h192.266c17.527 0 31.867 14.34 31.867 31.867v192.266c0 17.527-14.34 31.867-31.867 31.867h-192.266c-17.527 0-31.867-14.34-31.867-31.867v-192.266c0-17.527 14.34-31.867 31.867-31.867z" fill="#b6baf2" fill-rule="evenodd"/></g><path clip-rule="evenodd" d="m224.133 0h-96.133v256h96.133c17.527 0 31.867-14.34 31.867-31.867v-192.266c0-17.527-14.34-31.867-31.867-31.867z" fill="#7c84e8" fill-rule="evenodd"/><g><path clip-rule="evenodd" d="m31.867 256h192.266c17.527 0 31.867 14.34 31.867 31.867v192.266c0 17.527-14.34 31.867-31.867 31.867h-192.266c-17.527 0-31.867-14.34-31.867-31.867v-192.266c0-17.527 14.34-31.867 31.867-31.867z" fill="#4ff6d8" fill-rule="evenodd"/></g><path clip-rule="evenodd" d="m224.133 256h-96.133v256h96.133c17.527 0 31.867-14.34 31.867-31.867v-192.266c0-17.527-14.34-31.867-31.867-31.867z" fill="#00ddc1" fill-rule="evenodd"/><g><path clip-rule="evenodd" d="m287.867 256h192.266c17.527 0 31.867 14.34 31.867 31.867v192.266c0 17.527-14.34 31.867-31.867 31.867h-192.266c-17.527 0-31.867-14.34-31.867-31.867v-192.266c0-17.527 14.34-31.867 31.867-31.867z" fill="#ffd321" fill-rule="evenodd"/></g><path clip-rule="evenodd" d="m480.133 256h-96.133v256h96.133c17.527 0 31.867-14.34 31.867-31.867v-192.266c0-17.527-14.34-31.867-31.867-31.867z" fill="#ff9d21" fill-rule="evenodd"/><path d="m127.976 60c-8.284 0-15 6.716-15 15v45.5h-28.991v-45.5c0-8.284-6.716-15-15-15s-15 6.716-15 15v121c0 8.284 6.716 15 15 15s15-6.716 15-15v-45.5h28.992v45.5c0 8.284 6.716 15 15 15s15-6.716 15-15v-121c-.001-8.284-6.717-15-15.001-15z" fill="#7c84e8"/><path d="m145.985 380c-8.284 0-15 6.716-15 15v42c0 8.284 6.716 15 15 15s15-6.716 15-15v-42c0-8.284-6.716-15-15-15z" fill="#00aa95"/><path d="m103.985 422.003h-20v-106.004c0-8.284-6.716-15-15-15s-15 6.716-15 15v121.005c0 8.284 6.716 15 15 15h35c8.284 0 15-6.716 15-15s-6.716-15.001-15-15.001z" fill="#00ddc1"/><path d="m144.985 372c8.284 0 15-6.716 15-15v-1.001c0-8.284-6.716-15-15-15s-15 6.716-15 15v1.001c0 8.284 6.715 15 15 15z" fill="#00aa95"/><path d="m344.697 376.5 49.894-49.894c5.858-5.858 5.858-15.355 0-21.213-5.857-5.858-15.355-5.858-21.213 0l-33.393 33.393v-22.786c0-8.284-6.716-15-15-15s-15 6.716-15 15v121.002c0 8.284 6.716 15 15 15s15-6.716 15-15v-22.789l33.393 33.393c2.929 2.929 6.768 4.394 10.606 4.394s7.678-1.464 10.606-4.394c5.858-5.858 5.858-15.355 0-21.213z" fill="#ff9d21"/><path d="m128 60.001v150.997c8.273-.013 14.976-6.723 14.976-14.999v-120.999c0-8.276-6.703-14.986-14.976-14.999z" fill="#424ede"/><g fill="#ff7d43"><path d="m384 337.197 10.59-10.59c5.858-5.858 5.858-15.355 0-21.213-2.925-2.925-6.757-4.389-10.59-4.393z"/><path d="m384 415.803v36.196c3.833-.004 7.666-1.468 10.59-4.393 5.858-5.858 5.858-15.355 0-21.213z"/></g></g></svg>